<?xml version="1.0" standalone="no"?><!DOCTYPE svg PUBLIC "-//W3C//DTD SVG 1.1//EN" "http://www.w3.org/Graphics/SVG/1.1/DTD/svg11.dtd"><svg t="1647669628247" class="icon" viewBox="0 0 1024 1024" version="1.1" xmlns="http://www.w3.org/2000/svg" p-id="1670" xmlns:xlink="http://www.w3.org/1999/xlink" width="200" height="200"><defs><style type="text/css">@font-face { font-family: feedback-iconfont; src: url("//at.alicdn.com/t/font_1031158_u69w8yhxdu.woff2?t=1630033759944") format("woff2"), url("//at.alicdn.com/t/font_1031158_u69w8yhxdu.woff?t=1630033759944") format("woff"), url("//at.alicdn.com/t/font_1031158_u69w8yhxdu.ttf?t=1630033759944") format("truetype"); }
</style></defs><path d="M947.156677 665.781169h-358.096739V157.073723c0-27.191138-22.043569-49.230769-49.230769-49.230769H348.148185c-27.1872 0-49.230769 22.039631-49.23077 49.230769v36.344123h-142.454153c-27.191138 0-49.230769 22.043569-49.23077 49.230769v423.132554H70.892308c-27.1872 0-49.230769 22.043569-49.23077 49.230769V901.12c0 27.1872 22.043569 49.230769 49.23077 49.230769h876.264369c27.1872 0 49.230769-22.043569 49.230769-49.230769v-186.108062c0-27.1872-22.039631-49.230769-49.230769-49.230769zM397.378954 206.304492h93.219446v456.054154h-93.219446V206.304492zM205.694031 291.879385h93.223384v370.475323h-93.223384V291.879385zM897.925908 851.889231H120.123077v-87.646523h777.802831V851.889231z" fill="#594BC8" p-id="1671"></path><path d="M746.019446 703.933046c-19.109415 0-37.285415-11.189169-45.280492-29.865354L482.481231 164.296862c-10.7008-24.993477 0.886154-53.933292 25.879631-64.634093l176.214646-75.445169c25.005292-10.704738 53.933292 0.886154 64.634092 25.879631l218.261662 509.774769a49.226831 49.226831 0 0 1-25.88357 64.634092l-176.218584 75.44517a49.092923 49.092923 0 0 1-19.349662 3.981784zM592.372185 170.799262l179.503261 419.257107 85.704862-36.690707-179.5072-419.257108-85.700923 36.690708z" fill="#B0A5FA" p-id="1672"></path></svg>